<?xml version="1.0" encoding="iso-8859-1"?>
<!-- Generator: Adobe Illustrator 19.0.0, SVG Export Plug-In . SVG Version: 6.00 Build 0)  -->
<svg version="1.1" id="Capa_1" xmlns="http://www.w3.org/2000/svg" xmlns:xlink="http://www.w3.org/1999/xlink" x="0px" y="0px"
	 viewBox="0 0 512.001 512.001" style="enable-background:new 0 0 512.001 512.001;" xml:space="preserve">
<g>
	<g>
		<path d="M472.423,0.03H39.577C17.755,0.03,0,17.785,0,39.607v256.501c0,21.823,17.755,39.577,39.577,39.577h160.814v62.445
			c0,2.166,1.109,3.992,2.045,5.864c0.711,1.422,1.422,2.845,2.133,4.266c13.464,26.929,33.759,50.31,60.321,69.492
			c24.448,17.656,47.303,26.695,58.751,30.511c2.132,0.71,4.268,1.409,6.396,2.133c1.984,0.675,3.986,1.559,6.118,1.574
			c2.074,0.014,4.017-0.844,5.941-1.511c2.184-0.758,4.385-1.465,6.578-2.196c11.447-3.816,34.302-12.854,58.75-30.511
			c26.562-19.182,46.858-42.562,60.322-69.493c0.711-1.422,1.422-2.845,2.133-4.266c0.936-1.873,2.045-3.699,2.045-5.863v-62.445
			h0.501c21.823,0,39.577-17.755,39.577-39.577V39.607C512,17.785,494.245,0.03,472.423,0.03z M456.892,396.357l-2.591,5.183
			c-12.37,24.738-31.103,46.281-55.679,64.03c-22.825,16.485-44.07,24.893-54.704,28.437c-1.354,0.452-2.709,0.897-4.064,1.347
			c-0.714,0.237-1.441,0.455-2.138,0.736c-0.563,0.227-1.089,0.541-1.719,0.49c-0.595-0.047-1.122-0.382-1.667-0.597
			c-0.621-0.245-1.272-0.424-1.906-0.633c-1.345-0.442-2.686-0.896-4.03-1.344c-10.633-3.544-31.878-11.951-54.705-28.437
			c-24.576-17.749-43.309-39.292-55.678-64.03l-2.591-5.182V236.268l32.311,10.771c7.269,2.423,14.918,3.652,22.734,3.652
			c28.221-0.001,50.73-15.864,51.026-16.081l14.715-11.036l14.662,11.069c0.043,0.032,0.087,0.064,0.131,0.096
			c0.221,0.159,22.44,15.952,50.848,15.952c7.813,0,15.463-1.229,22.735-3.652l32.309-10.77V396.357z M496.971,128.281h-80.157
			c-4.151,0-7.515,3.364-7.515,7.515s3.364,7.515,7.515,7.515h80.157v152.798c0,13.535-11.011,24.547-24.548,24.547h-0.501v-94.813
			c0-5.04-5.101-8.726-9.891-7.129l-42.2,14.067c-5.737,1.911-11.788,2.881-17.983,2.881c-22.561,0-41.149-12.493-42.023-13.089
			l-19.075-14.4c-2.672-2.017-6.356-2.023-9.037-0.014l-19.119,14.34c-1.027,0.704-19.567,13.163-42.126,13.164
			c-6.198,0-12.248-0.969-17.982-2.881l-42.201-14.067c-4.789-1.594-9.891,2.088-9.891,7.129v94.813H39.577
			c-13.535,0-24.548-11.011-24.548-24.548V143.311h365.213c4.151,0,7.515-3.364,7.515-7.515s-3.364-7.515-7.515-7.515H15.029V79.186
			h481.941V128.281z M496.971,64.155H15.029V39.607c0-13.536,11.013-24.548,24.548-24.548h432.845
			c13.536,0,24.548,11.012,24.548,24.548V64.155z"/>
	</g>
</g>
<g>
	<g>
		<path d="M143.781,224.468H39.577c-4.15,0-7.515,3.364-7.515,7.515c0,4.151,3.365,7.515,7.515,7.515h104.204
			c4.15,0,7.515-3.364,7.515-7.515C151.295,227.832,147.931,224.468,143.781,224.468z"/>
	</g>
</g>
<g>
	<g>
		<path d="M231.953,160.343H39.577c-4.15,0-7.515,3.364-7.515,7.515v32.063c0,4.151,3.365,7.515,7.515,7.515h192.376
			c4.15,0,7.515-3.364,7.515-7.515v-32.063C239.468,163.708,236.103,160.343,231.953,160.343z M224.438,192.406H47.092v-17.033
			h177.346V192.406z"/>
	</g>
</g>
<g>
	<g>
		<path d="M429.968,263.199c-47.504,15.835-88.89-14.606-89.302-14.914c-2.671-2.004-6.346-2.004-9.018,0
			c-0.413,0.31-41.793,30.751-89.302,14.914c-4.789-1.594-9.891,2.088-9.891,7.129v120.235c0,1.166,0.271,2.318,0.794,3.361
			c28.789,57.579,88.795,80.012,100.532,83.925c1.534,0.511,3.219,0.511,4.753,0c11.737-3.912,71.743-26.345,100.532-83.925
			c0.522-1.044,0.794-2.194,0.794-3.361V270.328C439.859,265.287,434.758,261.604,429.968,263.199z M424.831,388.762
			L424.831,388.762c-24.853,48.053-74.013,68.742-88.674,74.004c-14.662-5.261-63.822-25.951-88.673-74.004V280.215
			c41.029,9.247,76.484-9.361,88.673-16.917c9.854,6.109,34.903,19.442,65.817,19.44c7.328-0.001,14.995-0.751,22.858-2.525V388.762
			z"/>
	</g>
</g>
<g>
	<g>
		<path d="M398.954,313.571c0.001-0.001,0-0.001,0-0.002c-7.095-8.103-19.464-8.927-27.57-1.837l-48.27,42.237l-11.405-15.208
			c-6.385-8.517-18.83-10.305-27.353-3.908c-8.519,6.385-10.3,18.829-3.908,27.353l24.046,32.062
			c6.719,8.961,20.063,10.36,28.497,2.983l64.126-56.11C405.224,334.047,406.048,321.679,398.954,313.571z M387.22,329.83
			l-64.124,56.109c-1.945,1.702-5.025,1.385-6.577-0.687l-24.047-32.063c-1.46-1.947-1.045-4.853,0.902-6.313
			c1.947-1.459,4.852-1.044,6.311,0.902l16.268,21.69c2.584,3.446,7.716,3.985,10.959,1.147l54.367-47.572
			c1.829-1.6,4.763-1.406,6.364,0.423C389.244,325.296,389.049,328.23,387.22,329.83z"/>
	</g>
</g>
<g>
</g>
<g>
</g>
<g>
</g>
<g>
</g>
<g>
</g>
<g>
</g>
<g>
</g>
<g>
</g>
<g>
</g>
<g>
</g>
<g>
</g>
<g>
</g>
<g>
</g>
<g>
</g>
<g>
</g>
</svg>
