<?xml version="1.0" encoding="iso-8859-1"?>
<!-- Generator: Adobe Illustrator 19.0.0, SVG Export Plug-In . SVG Version: 6.00 Build 0)  -->
<svg version="1.1" id="Capa_1" xmlns="http://www.w3.org/2000/svg" xmlns:xlink="http://www.w3.org/1999/xlink" x="0px" y="0px"
	 viewBox="0 0 512 512" style="enable-background:new 0 0 512 512;" xml:space="preserve">
<g>
	<g>
		<path d="M504.485,104.705c4.151,0,7.515-3.365,7.515-7.515V31.562C512,14.159,497.841,0,480.438,0H31.562
			C14.159,0,0,14.159,0,31.562v336.658c0,17.403,14.159,31.562,31.562,31.562h176.845v97.19h-16.532
			c-4.151,0-7.515,3.365-7.515,7.515c0,4.15,3.364,7.515,7.515,7.515h128.25c4.151,0,7.515-3.365,7.515-7.515
			c0-4.15-3.364-7.515-7.515-7.515h-16.532v-97.19h176.845c17.403,0,31.562-14.159,31.562-31.562V132.258
			c0-4.15-3.364-7.515-7.515-7.515c-4.151,0-7.515,3.365-7.515,7.515v188.368H15.029V63.123h481.941V97.19
			C496.971,101.34,500.334,104.705,504.485,104.705z M288.564,496.971h-65.127v-97.19h65.127V496.971z M496.971,335.656v32.564
			c0,9.116-7.415,16.532-16.532,16.532H31.562c-9.117,0-16.532-7.417-16.532-16.532v-32.564H496.971z M15.029,48.094V31.562
			c0-9.116,7.415-16.532,16.532-16.532h448.877c9.117,0,16.532,7.417,16.532,16.532v16.532H15.029z"/>
	</g>
</g>
<g>
	<g>
		<path d="M272.031,352.689h-32.063c-4.151,0-7.515,3.365-7.515,7.515c0,4.15,3.364,7.515,7.515,7.515h32.063
			c4.151,0,7.515-3.365,7.515-7.515C279.546,356.053,276.182,352.689,272.031,352.689z"/>
	</g>
</g>
<g>
	<g>
		<circle cx="256" cy="31.562" r="7.515"/>
	</g>
</g>
<g>
	<g>
		<path d="M400.282,128.25c-12.983,0-23.546,10.563-23.546,23.546c0,5.948,2.221,11.382,5.87,15.531L319.11,237.88
			c-4.079-3.386-9.314-5.426-15.016-5.426c-6.464,0-12.327,2.619-16.586,6.851l-56.286-28.143c0.148-1.065,0.23-2.151,0.23-3.256
			c0-12.983-10.563-23.546-23.546-23.546s-23.546,10.563-23.546,23.546c0,1.364,0.123,2.698,0.347,3.999l-61.466,46.099
			c-0.389,0.292-0.737,0.615-1.052,0.962c-3.156-1.574-6.71-2.465-10.47-2.465c-12.983,0-23.546,10.563-23.546,23.546
			c0,12.983,10.563,23.546,23.546,23.546s23.546-10.563,23.546-23.546c0-3.747-0.884-7.29-2.448-10.437l59.168-44.376
			c4.195,3.858,9.787,6.218,15.922,6.218c6.464,0,12.327-2.619,16.586-6.851l56.286,28.143c-0.148,1.065-0.23,2.151-0.23,3.256
			c0,12.983,10.563,23.546,23.546,23.546S327.64,268.983,327.64,256c0-1.582-0.159-3.128-0.459-4.623l68.792-76.436
			c1.399,0.26,2.837,0.402,4.308,0.402c12.983,0,23.546-10.563,23.546-23.546C423.828,138.813,413.265,128.25,400.282,128.25z
			 M111.718,288.564c-4.696,0-8.517-3.82-8.517-8.517c0-4.696,3.82-8.517,8.517-8.517s8.517,3.82,8.517,8.517
			C120.235,284.743,116.414,288.564,111.718,288.564z M207.906,216.423c-4.696,0-8.517-3.82-8.517-8.517s3.82-8.517,8.517-8.517
			s8.517,3.82,8.517,8.517S212.602,216.423,207.906,216.423z M304.094,264.517c-4.696,0-8.517-3.82-8.517-8.517
			s3.82-8.517,8.517-8.517s8.517,3.82,8.517,8.517S308.79,264.517,304.094,264.517z M400.282,160.313
			c-4.696,0-8.517-3.82-8.517-8.517s3.82-8.517,8.517-8.517s8.517,3.82,8.517,8.517S404.978,160.313,400.282,160.313z"/>
	</g>
</g>
<g>
	<g>
		<path d="M466.01,235.861c4.151,0,7.515-3.365,7.515-7.515v-5.21c0-11.984-9.156-21.87-20.841-23.03v-8.231
			c0-4.15-3.364-7.515-7.515-7.515s-7.515,3.365-7.515,7.515v8.591c-11.857,2.299-20.841,12.755-20.841,25.275
			c0,14.199,11.552,25.75,25.75,25.75h5.21c5.911,0,10.72,4.809,10.72,10.721s-4.809,10.721-10.72,10.721h-7.815
			c-4.475,0-8.116-3.641-8.116-8.116c0-4.15-3.364-7.515-7.515-7.515c-4.151,0-7.515,3.365-7.515,7.515
			c0,11.984,9.156,21.87,20.841,23.03v8.231c0,4.15,3.364,7.515,7.515,7.515c4.151,0,7.515-3.365,7.515-7.515v-8.591
			c11.858-2.299,20.841-12.755,20.841-25.275c0-14.199-11.551-25.75-25.749-25.75h-5.21c-5.912,0-10.721-4.809-10.721-10.721
			c0-5.911,4.809-10.721,10.721-10.721h7.815c4.475,0,8.116,3.641,8.116,8.116v5.21C458.495,232.496,461.859,235.861,466.01,235.861
			z"/>
	</g>
</g>
<g>
	<g>
		<path d="M289.667,131.657c4.151,0,7.515-3.365,7.515-7.515v-5.21c0-11.984-9.156-21.87-20.841-23.03v-8.231
			c0-4.15-3.364-7.515-7.515-7.515c-4.151,0-7.515,3.365-7.515,7.515v8.591c-11.857,2.299-20.841,12.755-20.841,25.275
			c0,14.199,11.552,25.75,25.75,25.75h5.21c5.911,0,10.72,4.809,10.72,10.721s-4.809,10.721-10.721,10.721h-7.815
			c-4.475,0-8.116-3.641-8.116-8.116c0-4.15-3.364-7.515-7.515-7.515c-4.151,0-7.515,3.365-7.515,7.515
			c0,11.984,9.156,21.87,20.841,23.03v8.231c0,4.15,3.364,7.515,7.515,7.515c4.151,0,7.515-3.365,7.515-7.515v-8.591
			c11.858-2.298,20.841-12.755,20.841-25.275c0-14.199-11.551-25.75-25.749-25.75h-5.21c-5.912,0-10.721-4.809-10.721-10.721
			c0-5.911,4.809-10.721,10.721-10.721h7.815c4.475,0,8.116,3.641,8.116,8.116v5.21
			C282.152,128.293,285.516,131.657,289.667,131.657z"/>
	</g>
</g>
<g>
	<g>
		<path d="M89.275,187.767c4.151,0,7.515-3.365,7.515-7.515v-5.21c0-11.984-9.156-21.87-20.841-23.03v-8.231
			c0-4.15-3.364-7.515-7.515-7.515c-4.151,0-7.515,3.365-7.515,7.515v8.591c-11.859,2.299-20.842,12.756-20.842,25.275
			c0,14.199,11.552,25.75,25.75,25.75h5.21c5.911,0,10.72,4.809,10.72,10.721c0,5.911-4.809,10.721-10.72,10.721h-7.815
			c-4.475,0-8.116-3.641-8.116-8.116c0-4.15-3.364-7.515-7.515-7.515s-7.515,3.365-7.515,7.515c0,11.984,9.156,21.87,20.841,23.03
			v8.231c0,4.15,3.364,7.515,7.515,7.515s7.515-3.365,7.515-7.515v-8.591c11.858-2.298,20.841-12.755,20.841-25.275
			c0-14.199-11.551-25.75-25.749-25.75h-5.21c-5.912,0-10.721-4.809-10.721-10.721s4.809-10.721,10.721-10.721h7.815
			c4.475,0,8.116,3.641,8.116,8.116v5.21C81.761,184.402,85.124,187.767,89.275,187.767z"/>
	</g>
</g>
<g>
</g>
<g>
</g>
<g>
</g>
<g>
</g>
<g>
</g>
<g>
</g>
<g>
</g>
<g>
</g>
<g>
</g>
<g>
</g>
<g>
</g>
<g>
</g>
<g>
</g>
<g>
</g>
<g>
</g>
</svg>
