<?xml version="1.0" encoding="UTF-8"?>
<!DOCTYPE svg PUBLIC "-//W3C//DTD SVG 1.1//EN" "http://www.w3.org/Graphics/SVG/1.1/DTD/svg11.dtd">
<svg xmlns="http://www.w3.org/2000/svg" version="1.1" width="300px" height="300px" style="shape-rendering:geometricPrecision; text-rendering:geometricPrecision; image-rendering:optimizeQuality; fill-rule:evenodd; clip-rule:evenodd" xmlns:xlink="http://www.w3.org/1999/xlink">
<g><path style="opacity:0.999" fill="#f7f7f7" d="M 152.5,61.5 C 153.985,64.0827 156.318,65.416 159.5,65.5C 160.959,65.4326 162.292,65.7659 163.5,66.5C 163.821,68.0481 164.821,68.7148 166.5,68.5C 168.579,68.9707 170.579,69.6373 172.5,70.5C 172.821,72.0481 173.821,72.7148 175.5,72.5C 176.791,72.2627 177.791,72.596 178.5,73.5C 179.823,75.6824 181.49,76.3491 183.5,75.5C 184.967,78.2583 185.633,77.925 185.5,74.5C 186.29,75.6085 186.79,76.9419 187,78.5C 187.333,77.8333 187.667,77.1667 188,76.5C 188.95,79.8921 191.117,81.0587 194.5,80C 195.756,79.5831 196.423,78.7498 196.5,77.5C 197.167,77.5 197.833,77.5 198.5,77.5C 198.611,78.1174 198.944,78.6174 199.5,79C 201.473,79.4955 203.473,79.6621 205.5,79.5C 205.5,84.1667 205.5,88.8333 205.5,93.5C 202.167,93.5 198.833,93.5 195.5,93.5C 194.542,93.0472 193.708,92.3805 193,91.5C 192.333,94.1667 191.667,94.1667 191,91.5C 190.667,92.1667 190.333,92.8333 190,93.5C 189.568,90.9276 188.068,89.5943 185.5,89.5C 184.448,89.3505 183.448,89.5172 182.5,90C 183.696,90.6543 183.696,91.1543 182.5,91.5C 181.316,89.9539 180.316,88.2873 179.5,86.5C 178.313,85.3473 177.313,85.3473 176.5,86.5C 174.249,85.3052 171.915,84.3052 169.5,83.5C 169.179,81.9519 168.179,81.2852 166.5,81.5C 164.684,79.5586 162.684,78.8919 160.5,79.5C 159.833,79.5 159.5,79.1667 159.5,78.5C 158.828,77.7326 157.995,77.0659 157,76.5C 156.601,76.7284 156.435,77.0618 156.5,77.5C 156.167,77.5 155.833,77.5 155.5,77.5C 155.423,76.2502 154.756,75.4169 153.5,75C 151.934,74.235 150.601,74.4017 149.5,75.5C 149.167,75.5 148.833,75.5 148.5,75.5C 145.966,75.2591 144.3,76.2591 143.5,78.5C 140.251,80.0277 136.918,81.3611 133.5,82.5C 133.565,82.0618 133.399,81.7284 133,81.5C 132.25,82.1258 131.416,82.6258 130.5,83C 130.728,83.3988 131.062,83.5654 131.5,83.5C 131.158,84.3382 130.492,84.6716 129.5,84.5C 128.673,83.5613 128.006,83.8946 127.5,85.5C 126.22,86.9313 124.553,87.5979 122.5,87.5C 120.821,87.2852 119.821,87.9519 119.5,89.5C 119.167,89.5 118.833,89.5 118.5,89.5C 118.565,89.0618 118.399,88.7284 118,88.5C 115.833,89.4881 114,90.8214 112.5,92.5C 108.265,93.436 103.931,93.7693 99.5,93.5C 99.5,89.1667 99.5,84.8333 99.5,80.5C 103.566,80.693 107.566,80.3597 111.5,79.5C 113.553,79.5979 115.22,78.9313 116.5,77.5C 118.789,75.6127 121.455,74.2794 124.5,73.5C 127.034,73.7409 128.7,72.7409 129.5,70.5C 132.007,69.1084 134.673,68.1084 137.5,67.5C 139.972,67.6347 141.306,66.968 141.5,65.5C 141.842,64.6618 142.508,64.3284 143.5,64.5C 143.435,64.9382 143.601,65.2716 144,65.5C 145.518,64.8366 146.685,63.8366 147.5,62.5C 148.919,61.5489 150.585,61.2155 152.5,61.5 Z"/></g>
<g><path style="opacity:0.216" fill="#3a3a3a" d="M 147.5,62.5 C 146.685,63.8366 145.518,64.8366 144,65.5C 143.601,65.2716 143.435,64.9382 143.5,64.5C 144.514,63.3263 145.847,62.6596 147.5,62.5 Z"/></g>
<g><path style="opacity:0.863" fill="#464646" d="M 152.5,61.5 C 155.032,62.5957 157.365,63.9291 159.5,65.5C 156.318,65.416 153.985,64.0827 152.5,61.5 Z"/></g>
<g><path style="opacity:0.961" fill="#313131" d="M 141.5,65.5 C 141.306,66.968 139.972,67.6347 137.5,67.5C 138.514,66.3263 139.847,65.6596 141.5,65.5 Z"/></g>
<g><path style="opacity:0.031" fill="#6d6d6d" d="M 163.5,66.5 C 164.71,66.9321 165.71,67.5987 166.5,68.5C 164.821,68.7148 163.821,68.0481 163.5,66.5 Z"/></g>
<g><path style="opacity:0.522" fill="#5a5a5a" d="M 129.5,70.5 C 128.7,72.7409 127.034,73.7409 124.5,73.5C 125.965,72.2632 127.632,71.2632 129.5,70.5 Z"/></g>
<g><path style="opacity:0.094" fill="#6f6f6f" d="M 172.5,70.5 C 173.71,70.9321 174.71,71.5987 175.5,72.5C 173.821,72.7148 172.821,72.0481 172.5,70.5 Z"/></g>
<g><path style="opacity:0.216" fill="#0f0f0f" d="M 189.5,73.5 C 193.165,73.5018 196.165,74.8352 198.5,77.5C 197.833,77.5 197.167,77.5 196.5,77.5C 195.833,77.1667 195.167,76.8333 194.5,76.5C 193.609,75.8902 192.609,75.5569 191.5,75.5C 190.833,74.8333 190.167,74.1667 189.5,73.5 Z"/></g>
<g><path style="opacity:0.922" fill="#474747" d="M 178.5,73.5 C 180.284,73.8925 181.95,74.5592 183.5,75.5C 181.49,76.3491 179.823,75.6824 178.5,73.5 Z"/></g>
<g><path style="opacity:0.812" fill="#747474" d="M 148.5,75.5 C 147.035,76.7368 145.368,77.7368 143.5,78.5C 144.3,76.2591 145.966,75.2591 148.5,75.5 Z"/></g>
<g><path style="opacity:0.745" fill="#717171" d="M 149.5,75.5 C 150.601,74.4017 151.934,74.235 153.5,75C 154.756,75.4169 155.423,76.2502 155.5,77.5C 153.703,76.2702 151.703,75.6036 149.5,75.5 Z"/></g>
<g><path style="opacity:0.969" fill="#646464" d="M 183.5,75.5 C 183.842,74.6618 184.508,74.3284 185.5,74.5C 185.633,77.925 184.967,78.2583 183.5,75.5 Z"/></g>
<g><path style="opacity:0.41" fill="#212121" d="M 159.5,78.5 C 158.209,78.7373 157.209,78.404 156.5,77.5C 156.435,77.0618 156.601,76.7284 157,76.5C 157.995,77.0659 158.828,77.7326 159.5,78.5 Z"/></g>
<g><path style="opacity:0.467" fill="#5a5a5a" d="M 116.5,77.5 C 115.22,78.9313 113.553,79.5979 111.5,79.5C 112.78,78.0687 114.447,77.4021 116.5,77.5 Z"/></g>
<g><path style="opacity:0.243" fill="#6a6a6a" d="M 185.5,74.5 C 186.568,73.5655 187.901,73.2322 189.5,73.5C 190.167,74.1667 190.833,74.8333 191.5,75.5C 192.053,77.5518 193.053,77.8852 194.5,76.5C 195.167,76.8333 195.833,77.1667 196.5,77.5C 196.423,78.7498 195.756,79.5831 194.5,80C 191.117,81.0587 188.95,79.8921 188,76.5C 187.667,77.1667 187.333,77.8333 187,78.5C 186.79,76.9419 186.29,75.6085 185.5,74.5 Z"/></g>
<g><path style="opacity:0.247" fill="#6f6f6f" d="M 160.5,79.5 C 162.684,78.8919 164.684,79.5586 166.5,81.5C 164.297,81.3964 162.297,80.7298 160.5,79.5 Z"/></g>
<g><path style="opacity:0.18" fill="#676767" d="M 133.5,82.5 C 133.158,83.3382 132.492,83.6716 131.5,83.5C 131.062,83.5654 130.728,83.3988 130.5,83C 131.416,82.6258 132.25,82.1258 133,81.5C 133.399,81.7284 133.565,82.0618 133.5,82.5 Z"/></g>
<g><path style="opacity:0.22" fill="#747474" d="M 166.5,81.5 C 168.179,81.2852 169.179,81.9519 169.5,83.5C 168.29,83.0679 167.29,82.4013 166.5,81.5 Z"/></g>
<g><path style="opacity:0.447" fill="#333333" d="M 129.5,84.5 C 129.158,85.3382 128.492,85.6716 127.5,85.5C 128.006,83.8946 128.673,83.5613 129.5,84.5 Z"/></g>
<g><path style="opacity:0.322" fill="#717171" d="M 122.5,87.5 C 121.71,88.4013 120.71,89.0679 119.5,89.5C 119.821,87.9519 120.821,87.2852 122.5,87.5 Z"/></g>
<g><path style="opacity:0.123" fill="#171717" d="M 176.5,86.5 C 177.313,85.3473 178.313,85.3473 179.5,86.5C 180.316,88.2873 181.316,89.9539 182.5,91.5C 183.696,91.1543 183.696,90.6543 182.5,90C 183.448,89.5172 184.448,89.3505 185.5,89.5C 184.167,91.1667 184.167,92.8333 185.5,94.5C 184.078,94.2914 182.745,93.7914 181.5,93C 180.418,90.3129 178.751,88.1462 176.5,86.5 Z"/></g>
<g><path style="opacity:0.337" fill="#848484" d="M 118.5,89.5 C 116.819,91.0075 114.819,92.0075 112.5,92.5C 114,90.8214 115.833,89.4881 118,88.5C 118.399,88.7284 118.565,89.0618 118.5,89.5 Z"/></g>
<g><path style="opacity:0.282" fill="#5b5b5b" d="M 185.5,89.5 C 188.068,89.5943 189.568,90.9276 190,93.5C 190.333,92.8333 190.667,92.1667 191,91.5C 191.667,94.1667 192.333,94.1667 193,91.5C 193.708,92.3805 194.542,93.0472 195.5,93.5C 193.883,94.9723 191.883,95.639 189.5,95.5C 187.955,95.4892 186.622,95.1558 185.5,94.5C 184.167,92.8333 184.167,91.1667 185.5,89.5 Z"/></g>
<g><path style="opacity:1" fill="#fefffe" d="M 109.5,103.5 C 114.167,103.5 118.833,103.5 123.5,103.5C 123.5,113.5 123.5,123.5 123.5,133.5C 118.833,133.5 114.167,133.5 109.5,133.5C 109.5,123.5 109.5,113.5 109.5,103.5 Z"/></g>
<g><path style="opacity:1" fill="#fefffe" d="M 133.5,103.5 C 138.167,103.5 142.833,103.5 147.5,103.5C 147.5,113.5 147.5,123.5 147.5,133.5C 142.833,133.5 138.167,133.5 133.5,133.5C 133.5,123.5 133.5,113.5 133.5,103.5 Z"/></g>
<g><path style="opacity:1" fill="#fefffe" d="M 157.5,103.5 C 162.167,103.5 166.833,103.5 171.5,103.5C 171.5,113.5 171.5,123.5 171.5,133.5C 166.833,133.5 162.167,133.5 157.5,133.5C 157.5,123.5 157.5,113.5 157.5,103.5 Z"/></g>
<g><path style="opacity:1" fill="#fefffe" d="M 181.5,103.5 C 186.167,103.5 190.833,103.5 195.5,103.5C 195.5,113.5 195.5,123.5 195.5,133.5C 190.833,133.5 186.167,133.5 181.5,133.5C 181.5,123.5 181.5,113.5 181.5,103.5 Z"/></g>
<g><path style="opacity:1" fill="#fefffe" d="M 69.5,119.5 C 79.5,119.5 89.5,119.5 99.5,119.5C 99.5,124.167 99.5,128.833 99.5,133.5C 89.5,133.5 79.5,133.5 69.5,133.5C 69.5,128.833 69.5,124.167 69.5,119.5 Z"/></g>
<g><path style="opacity:1" fill="#fefffe" d="M 205.5,119.5 C 215.5,119.5 225.5,119.5 235.5,119.5C 235.5,124.167 235.5,128.833 235.5,133.5C 225.5,133.5 215.5,133.5 205.5,133.5C 205.5,128.833 205.5,124.167 205.5,119.5 Z"/></g>
<g><path style="opacity:0.993" fill="#f5f5f5" d="M 120.5,143.5 C 123.5,143.5 126.5,143.5 129.5,143.5C 129.334,151.507 129.5,159.507 130,167.5C 131.97,164.032 134.136,160.699 136.5,157.5C 140.122,156.341 143.789,156.175 147.5,157C 144.132,160.902 141.132,165.069 138.5,169.5C 141.711,174.089 145.045,178.589 148.5,183C 144.833,183.667 141.167,183.667 137.5,183C 135,179.167 132.5,175.333 130,171.5C 129.501,175.486 129.334,179.486 129.5,183.5C 126.5,183.5 123.5,183.5 120.5,183.5C 120.5,170.167 120.5,156.833 120.5,143.5 Z"/></g>
<g><path style="opacity:0.993" fill="#e9e9e9" d="M 185.5,143.5 C 192.997,142.804 194.997,145.637 191.5,152C 187.202,153.46 184.202,152.126 182.5,148C 183.222,146.249 184.222,144.749 185.5,143.5 Z"/></g>
<g><path style="opacity:0.991" fill="#f9f9f9" d="M 232.5,143.5 C 235.5,143.5 238.5,143.5 241.5,143.5C 241.334,148.511 241.501,153.511 242,158.5C 247.682,154.207 253.016,154.541 258,159.5C 259.401,167.415 259.901,175.415 259.5,183.5C 256.5,183.5 253.5,183.5 250.5,183.5C 250.666,177.491 250.499,171.491 250,165.5C 247.528,160.368 244.861,160.368 242,165.5C 241.501,171.491 241.334,177.491 241.5,183.5C 238.5,183.5 235.5,183.5 232.5,183.5C 232.5,170.167 232.5,156.833 232.5,143.5 Z"/></g>
<g><path style="opacity:1" fill="#fbfbfb" d="M 25.5,145.5 C 28.5,145.5 31.5,145.5 34.5,145.5C 34.5,150.5 34.5,155.5 34.5,160.5C 39.5,160.5 44.5,160.5 49.5,160.5C 49.5,155.5 49.5,150.5 49.5,145.5C 52.5,145.5 55.5,145.5 58.5,145.5C 58.5,158.167 58.5,170.833 58.5,183.5C 55.5,183.5 52.5,183.5 49.5,183.5C 49.5,178.167 49.5,172.833 49.5,167.5C 44.5,167.5 39.5,167.5 34.5,167.5C 34.5,172.833 34.5,178.167 34.5,183.5C 31.5,183.5 28.5,183.5 25.5,183.5C 25.5,170.833 25.5,158.167 25.5,145.5 Z"/></g>
<g><path style="opacity:0.996" fill="#ededed" d="M 273.5,148.5 C 274.5,148.5 275.5,148.5 276.5,148.5C 276.5,151.167 276.5,153.833 276.5,156.5C 278.5,156.5 280.5,156.5 282.5,156.5C 282.5,158.5 282.5,160.5 282.5,162.5C 280.5,162.5 278.5,162.5 276.5,162.5C 276.334,167.179 276.501,171.845 277,176.5C 278.194,178.525 279.694,178.859 281.5,177.5C 282.474,179.743 282.808,182.076 282.5,184.5C 279.15,184.665 275.817,184.498 272.5,184C 271.069,183.535 269.903,182.701 269,181.5C 267.63,175.258 267.13,168.925 267.5,162.5C 266.167,162.5 264.833,162.5 263.5,162.5C 263.5,160.5 263.5,158.5 263.5,156.5C 264.833,156.5 266.167,156.5 267.5,156.5C 267.201,154.396 267.534,152.396 268.5,150.5C 270.336,149.972 272.003,149.306 273.5,148.5 Z"/></g>
<g><path style="opacity:0.989" fill="#f2f2f2" d="M 70.5,155.5 C 74.5138,155.334 78.5138,155.501 82.5,156C 84.286,156.785 85.786,157.951 87,159.5C 88.4352,167.389 88.9352,175.389 88.5,183.5C 85.2893,183.988 82.456,183.321 80,181.5C 75,185.5 70,185.5 65,181.5C 62.1192,174.803 63.9525,169.969 70.5,167C 73.914,166.703 77.2473,166.036 80.5,165C 79.5237,162.858 77.857,161.692 75.5,161.5C 72.6838,162.105 70.0172,163.105 67.5,164.5C 66.3526,162.235 66.1859,159.902 67,157.5C 68.3024,156.915 69.469,156.249 70.5,155.5 Z M 74.5,171.5 C 76.5,171.5 78.5,171.5 80.5,171.5C 80.5476,175.075 78.881,177.409 75.5,178.5C 71.9897,176.573 71.6564,174.24 74.5,171.5 Z"/></g>
<g><path style="opacity:0.986" fill="#f2f2f2" d="M 102.5,155.5 C 106.767,155.203 110.934,155.536 115,156.5C 115.667,158.833 115.667,161.167 115,163.5C 105.189,160.3 101.189,163.966 103,174.5C 106.244,178.771 110.078,179.438 114.5,176.5C 115.971,179.321 115.637,181.821 113.5,184C 101.622,186.94 94.6219,182.44 92.5,170.5C 93.1258,163.553 96.4591,158.553 102.5,155.5 Z"/></g>
<g><path style="opacity:0.996" fill="#efefef" d="M 164.5,155.5 C 168.584,155.043 172.417,155.71 176,157.5C 176.862,159.087 177.529,160.754 178,162.5C 178.5,169.492 178.666,176.492 178.5,183.5C 175.5,183.5 172.5,183.5 169.5,183.5C 169.666,177.158 169.5,170.825 169,164.5C 166.002,160.632 163.336,160.965 161,165.5C 160.501,171.491 160.334,177.491 160.5,183.5C 157.5,183.5 154.5,183.5 151.5,183.5C 151.5,174.5 151.5,165.5 151.5,156.5C 155.03,155.989 158.196,156.656 161,158.5C 162.145,157.364 163.312,156.364 164.5,155.5 Z"/></g>
<g><path style="opacity:0.988" fill="#f1f1f1" d="M 206.5,155.5 C 209.518,155.335 212.518,155.502 215.5,156C 216,156.5 216.5,157 217,157.5C 220.057,156.549 223.223,156.216 226.5,156.5C 226.931,167.578 226.431,178.578 225,189.5C 221.152,194.673 215.986,197.006 209.5,196.5C 202.091,198.172 199.425,195.505 201.5,188.5C 207.231,191.65 212.397,190.983 217,186.5C 217.667,185.167 217.667,183.833 217,182.5C 205.622,187.059 199.122,183.225 197.5,171C 197.594,163.959 200.594,158.793 206.5,155.5 Z M 211.5,161.5 C 216.111,162.12 218.111,164.787 217.5,169.5C 218.149,173.874 216.483,176.874 212.5,178.5C 208.669,177.013 207.003,174.18 207.5,170C 207.134,166.236 208.467,163.403 211.5,161.5 Z"/></g>
<g><path style="opacity:1" fill="#fafafa" d="M 183.5,156.5 C 186.5,156.5 189.5,156.5 192.5,156.5C 192.5,165.5 192.5,174.5 192.5,183.5C 189.5,183.5 186.5,183.5 183.5,183.5C 183.5,174.5 183.5,165.5 183.5,156.5 Z"/></g>
<g><path style="opacity:1" fill="#fefffe" d="M 101.5,199.5 C 136.833,199.5 172.167,199.5 207.5,199.5C 207.5,204.167 207.5,208.833 207.5,213.5C 172.167,213.5 136.833,213.5 101.5,213.5C 101.5,208.833 101.5,204.167 101.5,199.5 Z"/></g>
<g><path style="opacity:1" fill="#fefffe" d="M 137.5,223.5 C 147.5,223.5 157.5,223.5 167.5,223.5C 167.5,228.167 167.5,232.833 167.5,237.5C 157.5,237.5 147.5,237.5 137.5,237.5C 137.5,232.833 137.5,228.167 137.5,223.5 Z"/></g>
</svg>
